<svg version="1.1" id="Layer_1" xmlns="http://www.w3.org/2000/svg" xmlns:xlink="http://www.w3.org/1999/xlink" x="0px" y="0px"
	 width="100%" viewBox="0 0 512 512" enable-background="new 0 0 512 512" xml:space="preserve">
<path fill="#BF0303" opacity="1.000000" stroke="none" 
	d="
M225.000000,0.999997 
	C246.020889,1.000000 267.041779,1.000000 288.431824,1.403146 
	C289.510010,2.175133 290.183197,2.751060 290.933624,2.881110 
	C299.385529,4.345803 307.984131,5.196212 316.287140,7.248403 
	C358.711792,17.734201 396.489288,37.348389 428.962585,66.625458 
	C444.688049,80.803146 458.928741,96.512001 470.151215,114.599953 
	C476.537628,124.893349 482.723328,135.397705 487.913635,146.322876 
	C493.297272,157.655014 497.634857,169.513138 501.947418,181.317505 
	C507.035492,195.244751 509.447632,209.811157 511.138763,224.504105 
	C511.203522,225.066696 512.354919,225.504196 513.000000,226.000000 
	C513.000000,246.687561 513.000000,267.375122 512.586670,288.439880 
	C511.116028,294.035156 509.858948,299.222015 509.036560,304.476898 
	C505.814453,325.065979 499.190887,344.637543 490.673737,363.513153 
	C481.299316,384.288544 469.692657,403.865265 454.449707,420.922180 
	C444.103088,432.500092 433.685425,444.265839 421.805939,454.153076 
	C409.508118,464.388489 395.608063,472.773712 382.042023,481.390808 
	C366.400299,491.326385 349.069061,497.749359 331.389740,502.877411 
	C319.310669,506.381073 306.792053,508.364441 294.492371,511.127197 
	C293.885315,511.263550 293.492584,512.353882 293.000000,513.000000 
	C268.979095,513.000000 244.958206,513.000000 220.566406,512.593079 
	C219.525009,511.800110 218.898285,511.218323 218.177521,511.057129 
	C206.194168,508.376953 194.003830,506.417145 182.244659,502.979706 
	C152.075333,494.160583 124.593597,479.946045 99.755066,460.539459 
	C78.541290,443.964844 60.071751,424.866821 44.852364,402.684753 
	C23.108978,370.993988 9.061904,336.178375 2.906496,298.200684 
	C2.721733,297.060730 1.655341,296.063690 0.999996,295.000000 
	C1.000000,270.312439 1.000000,245.624878 1.392000,220.546844 
	C3.598851,211.783264 5.104096,203.328827 7.279230,195.050400 
	C20.557678,144.513336 45.745399,100.997536 85.238876,66.494766 
	C97.995110,55.350517 111.777069,45.076515 126.198761,36.207706 
	C153.572769,19.373720 183.523590,8.812329 215.377472,3.854983 
	C218.653732,3.345105 221.795715,1.972355 225.000000,0.999997 
M467.667999,137.886658 
	C412.258484,44.055008 306.812958,-1.794657 201.086578,21.972097 
	C57.828876,54.175701 -24.165924,207.657349 28.973137,344.141968 
	C71.545189,453.485809 186.242355,516.375793 302.664398,494.210571 
	C465.368744,463.233765 549.372192,282.536194 467.667999,137.886658 
z"/>
<path fill="#000000" opacity="1.000000" stroke="none" 
	d="
M513.000000,225.531342 
	C512.354919,225.504196 511.203522,225.066696 511.138763,224.504105 
	C509.447632,209.811157 507.035492,195.244751 501.947418,181.317505 
	C497.634857,169.513138 493.297272,157.655014 487.913635,146.322876 
	C482.723328,135.397705 476.537628,124.893349 470.151215,114.599953 
	C458.928741,96.512001 444.688049,80.803146 428.962585,66.625458 
	C396.489288,37.348389 358.711792,17.734201 316.287140,7.248403 
	C307.984131,5.196212 299.385529,4.345803 290.933624,2.881110 
	C290.183197,2.751060 289.510010,2.175133 288.900482,1.403146 
	C363.593842,1.000000 438.187714,1.000000 513.000000,1.000000 
	C513.000000,75.687416 513.000000,150.375046 513.000000,225.531342 
z"/>
<path fill="#000000" opacity="1.000000" stroke="none" 
	d="
M224.531342,0.999997 
	C221.795715,1.972355 218.653732,3.345105 215.377472,3.854983 
	C183.523590,8.812329 153.572769,19.373720 126.198761,36.207706 
	C111.777069,45.076515 97.995110,55.350517 85.238876,66.494766 
	C45.745399,100.997536 20.557678,144.513336 7.279230,195.050400 
	C5.104096,203.328827 3.598851,211.783264 1.392000,220.078186 
	C1.000000,147.072128 1.000000,74.144264 1.000000,1.000000 
	C75.354088,1.000000 149.708389,1.000000 224.531342,0.999997 
z"/>
<path fill="#000000" opacity="1.000000" stroke="none" 
	d="
M293.468689,513.000000 
	C293.492584,512.353882 293.885315,511.263550 294.492371,511.127197 
	C306.792053,508.364441 319.310669,506.381073 331.389740,502.877411 
	C349.069061,497.749359 366.400299,491.326385 382.042023,481.390808 
	C395.608063,472.773712 409.508118,464.388489 421.805939,454.153076 
	C433.685425,444.265839 444.103088,432.500092 454.449707,420.922180 
	C469.692657,403.865265 481.299316,384.288544 490.673737,363.513153 
	C499.190887,344.637543 505.814453,325.065979 509.036560,304.476898 
	C509.858948,299.222015 511.116028,294.035156 512.586670,288.908539 
	C513.000000,363.593048 513.000000,438.186066 513.000000,513.000000 
	C439.979248,513.000000 366.958282,513.000000 293.468689,513.000000 
z"/>
<path fill="#000000" opacity="1.000000" stroke="none" 
	d="
M0.999996,295.468658 
	C1.655341,296.063690 2.721733,297.060730 2.906496,298.200684 
	C9.061904,336.178375 23.108978,370.993988 44.852364,402.684753 
	C60.071751,424.866821 78.541290,443.964844 99.755066,460.539459 
	C124.593597,479.946045 152.075333,494.160583 182.244659,502.979706 
	C194.003830,506.417145 206.194168,508.376953 218.177521,511.057129 
	C218.898285,511.218323 219.525009,511.800110 220.097748,512.593079 
	C147.073135,513.000000 74.146278,513.000000 1.000000,513.000000 
	C1.000000,440.645935 1.000000,368.291626 0.999996,295.468658 
z"/>
<path fill="#FEFDFE" opacity="1.000000" stroke="none" 
	d="
M467.840027,138.211044 
	C549.372192,282.536194 465.368744,463.233765 302.664398,494.210571 
	C186.242355,516.375793 71.545189,453.485809 28.973137,344.141968 
	C-24.165924,207.657349 57.828876,54.175701 201.086578,21.972097 
	C306.812958,-1.794657 412.258484,44.055008 467.840027,138.211044 
M234.528229,296.605988 
	C252.492508,293.794373 270.351166,293.887970 287.925323,299.031860 
	C293.498077,300.663025 299.114685,302.552277 302.002014,308.448853 
	C302.321930,309.102203 303.547363,309.639618 304.369720,309.664185 
	C308.476471,309.786835 312.588837,309.720276 317.045166,309.720276 
	C316.929688,304.349731 315.114136,300.049896 311.501770,297.371948 
	C305.820770,293.160431 299.914642,288.747803 293.401398,286.257446 
	C272.946533,278.436340 251.695282,277.677490 230.541931,282.794464 
	C222.118759,284.832062 213.965973,288.644226 206.240891,292.698181 
	C200.311493,295.809692 195.972794,301.057129 195.198639,308.351410 
	C204.537018,310.106262 207.257233,309.429901 213.443130,304.260834 
	C214.690475,303.218506 216.282578,302.588715 217.821136,302.601807 
	C218.527191,308.628296 221.189438,312.231506 225.958130,311.875549 
	C228.879288,311.657440 232.350052,310.068390 234.326035,307.937653 
	C237.409927,304.612244 235.959290,300.530518 234.528229,296.605988 
M278.925018,214.453506 
	C261.659607,217.306061 244.434723,217.428513 227.395676,213.080414 
	C220.670273,211.364197 213.670242,209.717392 210.082947,202.576950 
	C209.807999,202.029678 208.748840,201.604630 208.044205,201.589554 
	C203.804077,201.498856 199.561050,201.544495 195.318985,201.544495 
	C194.957428,202.009689 194.595871,202.474884 194.234329,202.940079 
	C196.295456,206.568542 197.707153,210.862823 200.577072,213.662094 
	C204.429214,217.419464 209.055450,220.823608 213.963715,222.983032 
	C237.605637,233.384430 262.104370,234.034454 286.698456,227.187653 
	C294.081848,225.132187 301.110443,221.249512 307.762177,217.296295 
	C312.921661,214.229950 316.435760,209.274612 317.063385,202.256638 
	C310.236359,202.920685 303.032379,199.394623 298.477417,207.174393 
	C297.900574,208.159607 296.260773,208.522476 294.994171,208.353912 
	C294.600830,202.194138 291.877686,198.762299 286.916809,198.174454 
	C282.752106,197.680923 277.897888,200.330643 277.499298,204.467422 
	C277.198883,207.584824 278.927002,210.897675 278.925018,214.453506 
M419.057068,201.290070 
	C420.108246,196.145294 417.692566,193.683212 412.800507,192.778870 
	C407.248566,191.752563 401.801300,190.021179 396.217682,189.327713 
	C364.908539,185.439285 340.475464,200.320679 331.389252,229.359665 
	C325.158539,249.272736 325.395996,269.486908 331.984802,289.343567 
	C337.194641,305.044312 347.810120,315.886261 363.708405,320.795898 
	C381.370819,326.250305 398.931458,324.669678 416.142609,318.435425 
	C417.351074,317.997681 418.840485,316.330811 418.923706,315.145905 
	C419.247192,310.541046 419.055450,305.900055 419.055450,301.659302 
	C410.567291,303.689240 402.477509,306.487335 394.175842,307.440948 
	C372.688232,309.909241 355.710205,301.920807 349.510681,279.878448 
	C345.329681,265.012787 345.115479,249.830032 349.269043,234.933884 
	C353.671783,219.144089 363.277679,207.656845 380.280334,205.607010 
	C388.480682,204.618378 397.049316,206.684906 405.080292,207.985291 
	C404.752106,208.561432 404.391602,209.121750 404.100677,209.716110 
	C400.179291,217.726547 403.072754,226.361130 410.849701,229.882446 
	C418.131042,233.179367 426.863007,229.807297 430.118225,222.441467 
	C433.522736,214.737701 429.701294,206.283020 421.352509,203.051758 
	C420.580658,202.753036 419.804108,202.466385 419.057068,201.290070 
M107.976814,305.400116 
	C108.366379,304.864685 108.804008,304.357513 109.138191,303.789490 
	C113.398308,296.548553 111.463531,288.095123 104.579636,283.811005 
	C97.789948,279.585510 88.825958,281.684387 84.553566,288.500061 
	C80.327393,295.241943 82.453804,303.782471 89.517494,308.406769 
	C90.344124,308.947937 91.198235,309.447083 91.958549,310.872467 
	C91.958549,313.814026 91.958549,316.755615 91.958549,319.859375 
	C97.641258,320.850800 102.692726,321.935822 107.799568,322.585693 
	C124.589310,324.722198 141.401047,325.646545 157.667206,319.713837 
	C171.363388,314.718445 180.479416,305.488770 181.964691,290.309174 
	C183.489243,274.728302 175.756439,264.175812 162.759308,257.061768 
	C156.360336,253.559250 149.436676,251.023560 142.795105,247.953751 
	C135.711990,244.679855 128.440598,241.711227 121.696159,237.835403 
	C115.003174,233.989182 111.392029,227.918564 112.953758,219.793564 
	C114.467766,211.916779 120.046822,207.528961 127.256798,206.221771 
	C134.861832,204.842957 142.775742,204.372055 150.504471,204.697601 
	C158.052658,205.015533 165.537430,206.839600 173.647308,208.094940 
	C173.647308,203.530151 173.846878,199.077438 173.495773,194.668594 
	C173.415985,193.666611 171.495331,192.118164 170.308701,192.004578 
	C158.415421,190.865967 146.501038,189.272873 134.587357,189.228958 
	C124.484634,189.191711 114.942818,192.694031 106.714905,198.914734 
	C89.311928,212.072250 89.214592,236.713425 106.577553,249.837189 
	C109.741180,252.228424 113.222694,254.332748 116.826965,255.979752 
	C124.541077,259.504791 132.526398,262.439636 140.217697,266.010223 
	C145.770782,268.588165 151.235092,271.485870 156.353897,274.830353 
	C160.525726,277.556122 162.963440,281.731659 163.112457,287.021667 
	C163.378479,296.465729 158.866226,303.164948 149.225861,305.847168 
	C135.482956,309.670929 121.571892,308.797852 107.976814,305.400116 
M353.571136,129.869156 
	C355.451080,130.931366 357.331024,131.993576 359.115051,133.001602 
	C350.167603,133.858276 341.538727,134.684448 332.302917,135.568726 
	C333.565582,138.513306 334.246704,140.197998 335.006561,141.846405 
	C335.751801,143.463058 336.577118,145.042801 337.435730,146.777084 
	C361.137878,141.287125 381.493469,148.435120 400.088562,162.135620 
	C406.893402,167.149307 412.029114,173.678848 415.125763,181.680710 
	C417.816803,188.634384 418.646759,188.985046 426.627228,186.788559 
	C425.929443,171.701172 420.433441,158.348221 411.535980,146.331024 
	C395.978607,125.318695 374.783966,111.806458 351.056580,101.985039 
	C311.561737,85.637032 270.309631,81.240257 228.078644,85.419151 
	C197.137985,88.480812 167.534485,96.554314 140.379913,112.183029 
	C120.261703,123.761986 103.032372,138.400192 92.609451,159.744476 
	C88.429527,168.304199 85.808670,177.304031 85.741402,187.402496 
	C94.286827,187.402496 102.346779,187.402496 110.553085,187.402496 
	C112.358604,168.460449 122.628876,154.656082 136.962173,143.694458 
	C144.188370,138.168106 152.067520,133.271347 160.209900,129.209381 
	C184.066559,117.308105 209.666321,111.658798 236.135437,109.756676 
	C276.658936,106.844582 315.883392,111.767296 353.571136,129.869156 
M229.978577,407.672882 
	C205.733368,405.049286 182.285858,399.558990 159.364639,388.344788 
	C166.913513,387.196960 173.428772,386.206268 180.357254,385.152771 
	C178.963104,382.050598 177.814667,379.994507 177.107330,377.796478 
	C176.196365,374.965637 174.590973,374.477081 171.810730,375.024048 
	C156.741028,377.988892 142.260071,375.265472 128.327408,369.557312 
	C113.416054,363.448181 101.742111,353.795074 96.597397,337.802094 
	C95.802406,335.330750 95.266884,332.775909 94.688080,330.554169 
	C91.465332,330.554169 88.715538,330.554169 85.709053,330.554169 
	C85.822044,340.258514 88.217598,349.030426 92.215714,357.344452 
	C103.148964,380.079926 121.167702,396.089996 143.160690,407.079773 
	C213.189529,442.072754 284.654205,442.818878 356.609558,413.342529 
	C377.977234,404.589325 396.560242,391.331909 410.727386,372.669891 
	C420.074768,360.356750 425.933350,346.652679 426.612518,330.533447 
	C418.204437,330.533447 410.140411,330.533447 401.773468,330.533447 
	C399.215698,353.374512 385.175934,368.434326 366.936768,380.184265 
	C359.147247,385.202332 350.768677,389.549988 342.189026,393.055023 
	C306.429138,407.663757 269.090271,411.149597 229.978577,407.672882 
M204.519745,249.890076 
	C241.936661,249.890076 279.353577,249.890076 316.746094,249.890076 
	C316.746094,245.969269 316.746094,242.734177 316.746094,239.406494 
	C275.164368,239.406494 233.929550,239.406494 192.429596,239.406494 
	C192.429596,242.898041 192.429596,246.128586 192.429596,249.890076 
	C196.289383,249.890076 199.909805,249.890076 204.519745,249.890076 
M275.500000,271.028076 
	C289.253082,271.028076 303.006134,271.028076 316.713013,271.028076 
	C316.713013,267.163361 316.713013,263.953735 316.713013,260.851898 
	C275.005920,260.851898 233.685410,260.851898 192.433838,260.851898 
	C192.433838,264.394928 192.433838,267.493378 192.433838,271.028076 
	C219.982101,271.028076 247.241043,271.028076 275.500000,271.028076 
z"/>
<path fill="#BF0405" opacity="1.000000" stroke="none" 
	d="
M353.246338,129.696686 
	C315.883392,111.767296 276.658936,106.844582 236.135437,109.756676 
	C209.666321,111.658798 184.066559,117.308105 160.209900,129.209381 
	C152.067520,133.271347 144.188370,138.168106 136.962173,143.694458 
	C122.628876,154.656082 112.358604,168.460449 110.553085,187.402496 
	C102.346779,187.402496 94.286827,187.402496 85.741402,187.402496 
	C85.808670,177.304031 88.429527,168.304199 92.609451,159.744476 
	C103.032372,138.400192 120.261703,123.761986 140.379913,112.183029 
	C167.534485,96.554314 197.137985,88.480812 228.078644,85.419151 
	C270.309631,81.240257 311.561737,85.637032 351.056580,101.985039 
	C374.783966,111.806458 395.978607,125.318695 411.535980,146.331024 
	C420.433441,158.348221 425.929443,171.701172 426.627228,186.788559 
	C418.646759,188.985046 417.816803,188.634384 415.125763,181.680710 
	C412.029114,173.678848 406.893402,167.149307 400.088562,162.135620 
	C381.493469,148.435120 361.137878,141.287125 337.435730,146.777084 
	C336.577118,145.042801 335.751801,143.463058 335.006561,141.846405 
	C334.246704,140.197998 333.565582,138.513306 332.302917,135.568726 
	C341.538727,134.684448 350.167603,133.858276 359.115051,133.001602 
	C357.331024,131.993576 355.451080,130.931366 353.246338,129.696686 
M369.439178,138.752762 
	C373.582886,142.782364 377.509247,143.687134 381.422272,141.224335 
	C385.000183,138.972473 386.600433,135.659943 385.558716,131.422897 
	C384.282288,126.231117 379.041779,123.423714 373.904053,125.063591 
	C368.636108,126.745026 366.735779,131.820587 369.439178,138.752762 
z"/>
<path fill="#053356" opacity="1.000000" stroke="none" 
	d="
M230.436951,407.718994 
	C269.090271,411.149597 306.429138,407.663757 342.189026,393.055023 
	C350.768677,389.549988 359.147247,385.202332 366.936768,380.184265 
	C385.175934,368.434326 399.215698,353.374512 401.773468,330.533447 
	C410.140411,330.533447 418.204437,330.533447 426.612518,330.533447 
	C425.933350,346.652679 420.074768,360.356750 410.727386,372.669891 
	C396.560242,391.331909 377.977234,404.589325 356.609558,413.342529 
	C284.654205,442.818878 213.189529,442.072754 143.160690,407.079773 
	C121.167702,396.089996 103.148964,380.079926 92.215714,357.344452 
	C88.217598,349.030426 85.822044,340.258514 85.709053,330.554169 
	C88.715538,330.554169 91.465332,330.554169 94.688080,330.554169 
	C95.266884,332.775909 95.802406,335.330750 96.597397,337.802094 
	C101.742111,353.795074 113.416054,363.448181 128.327408,369.557312 
	C142.260071,375.265472 156.741028,377.988892 171.810730,375.024048 
	C174.590973,374.477081 176.196365,374.965637 177.107330,377.796478 
	C177.814667,379.994507 178.963104,382.050598 180.357254,385.152771 
	C173.428772,386.206268 166.913513,387.196960 159.364639,388.344788 
	C182.285858,399.558990 205.733368,405.049286 230.436951,407.718994 
M156.652725,389.073303 
	C152.949707,384.417358 148.829742,383.134552 144.624252,385.328033 
	C140.337860,387.563721 138.531754,392.445831 140.389267,396.775787 
	C142.317413,401.270355 147.402313,403.407288 152.033981,401.669464 
	C156.672409,399.929077 158.513672,395.506317 156.652725,389.073303 
z"/>
<path fill="#BF0606" opacity="1.000000" stroke="none" 
	d="
M107.716866,306.097351 
	C121.571892,308.797852 135.482956,309.670929 149.225861,305.847168 
	C158.866226,303.164948 163.378479,296.465729 163.112457,287.021667 
	C162.963440,281.731659 160.525726,277.556122 156.353897,274.830353 
	C151.235092,271.485870 145.770782,268.588165 140.217697,266.010223 
	C132.526398,262.439636 124.541077,259.504791 116.826965,255.979752 
	C113.222694,254.332748 109.741180,252.228424 106.577553,249.837189 
	C89.214592,236.713425 89.311928,212.072250 106.714905,198.914734 
	C114.942818,192.694031 124.484634,189.191711 134.587357,189.228958 
	C146.501038,189.272873 158.415421,190.865967 170.308701,192.004578 
	C171.495331,192.118164 173.415985,193.666611 173.495773,194.668594 
	C173.846878,199.077438 173.647308,203.530151 173.647308,208.094940 
	C165.537430,206.839600 158.052658,205.015533 150.504471,204.697601 
	C142.775742,204.372055 134.861832,204.842957 127.256798,206.221771 
	C120.046822,207.528961 114.467766,211.916779 112.953758,219.793564 
	C111.392029,227.918564 115.003174,233.989182 121.696159,237.835403 
	C128.440598,241.711227 135.711990,244.679855 142.795105,247.953751 
	C149.436676,251.023560 156.360336,253.559250 162.759308,257.061768 
	C175.756439,264.175812 183.489243,274.728302 181.964691,290.309174 
	C180.479416,305.488770 171.363388,314.718445 157.667206,319.713837 
	C141.401047,325.646545 124.589310,324.722198 107.799568,322.585693 
	C102.692726,321.935822 97.641258,320.850800 91.958549,319.859375 
	C91.958549,316.755615 91.958549,313.814026 92.448555,310.428925 
	C98.479836,311.027618 103.393021,309.682526 107.716866,306.097351 
z"/>
<path fill="#063457" opacity="1.000000" stroke="none" 
	d="
M405.451202,207.368027 
	C397.049316,206.684906 388.480682,204.618378 380.280334,205.607010 
	C363.277679,207.656845 353.671783,219.144089 349.269043,234.933884 
	C345.115479,249.830032 345.329681,265.012787 349.510681,279.878448 
	C355.710205,301.920807 372.688232,309.909241 394.175842,307.440948 
	C402.477509,306.487335 410.567291,303.689240 419.055450,301.659302 
	C419.055450,305.900055 419.247192,310.541046 418.923706,315.145905 
	C418.840485,316.330811 417.351074,317.997681 416.142609,318.435425 
	C398.931458,324.669678 381.370819,326.250305 363.708405,320.795898 
	C347.810120,315.886261 337.194641,305.044312 331.984802,289.343567 
	C325.395996,269.486908 325.158539,249.272736 331.389252,229.359665 
	C340.475464,200.320679 364.908539,185.439285 396.217682,189.327713 
	C401.801300,190.021179 407.248566,191.752563 412.800507,192.778870 
	C417.692566,193.683212 420.108246,196.145294 418.636047,201.772263 
	C413.960449,203.958969 409.705811,205.663498 405.451202,207.368027 
z"/>
<path fill="#BF0708" opacity="1.000000" stroke="none" 
	d="
M295.113434,209.173691 
	C296.260773,208.522476 297.900574,208.159607 298.477417,207.174393 
	C303.032379,199.394623 310.236359,202.920685 317.063385,202.256638 
	C316.435760,209.274612 312.921661,214.229950 307.762177,217.296295 
	C301.110443,221.249512 294.081848,225.132187 286.698456,227.187653 
	C262.104370,234.034454 237.605637,233.384430 213.963715,222.983032 
	C209.055450,220.823608 204.429214,217.419464 200.577072,213.662094 
	C197.707153,210.862823 196.295456,206.568542 194.234329,202.940079 
	C194.595871,202.474884 194.957428,202.009689 195.318985,201.544495 
	C199.561050,201.544495 203.804077,201.498856 208.044205,201.589554 
	C208.748840,201.604630 209.807999,202.029678 210.082947,202.576950 
	C213.670242,209.717392 220.670273,211.364197 227.395676,213.080414 
	C244.434723,217.428513 261.659607,217.306061 279.645264,214.410156 
	C287.572540,217.535919 290.898132,216.364899 295.113434,209.173691 
z"/>
<path fill="#083658" opacity="1.000000" stroke="none" 
	d="
M217.715744,301.768738 
	C216.282578,302.588715 214.690475,303.218506 213.443130,304.260834 
	C207.257233,309.429901 204.537018,310.106262 195.198639,308.351410 
	C195.972794,301.057129 200.311493,295.809692 206.240891,292.698181 
	C213.965973,288.644226 222.118759,284.832062 230.541931,282.794464 
	C251.695282,277.677490 272.946533,278.436340 293.401398,286.257446 
	C299.914642,288.747803 305.820770,293.160431 311.501770,297.371948 
	C315.114136,300.049896 316.929688,304.349731 317.045166,309.720276 
	C312.588837,309.720276 308.476471,309.786835 304.369720,309.664185 
	C303.547363,309.639618 302.321930,309.102203 302.002014,308.448853 
	C299.114685,302.552277 293.498077,300.663025 287.925323,299.031860 
	C270.351166,293.887970 252.492508,293.794373 233.853378,296.602264 
	C225.793091,292.342957 221.258926,293.859009 217.715744,301.768738 
z"/>
<path fill="#BF0D0D" opacity="1.000000" stroke="none" 
	d="
M204.024994,249.890076 
	C199.909805,249.890076 196.289383,249.890076 192.429596,249.890076 
	C192.429596,246.128586 192.429596,242.898041 192.429596,239.406494 
	C233.929550,239.406494 275.164368,239.406494 316.746094,239.406494 
	C316.746094,242.734177 316.746094,245.969269 316.746094,249.890076 
	C279.353577,249.890076 241.936661,249.890076 204.024994,249.890076 
z"/>
<path fill="#103C5E" opacity="1.000000" stroke="none" 
	d="
M275.000000,271.028076 
	C247.241043,271.028076 219.982101,271.028076 192.433838,271.028076 
	C192.433838,267.493378 192.433838,264.394928 192.433838,260.851898 
	C233.685410,260.851898 275.005920,260.851898 316.713013,260.851898 
	C316.713013,263.953735 316.713013,267.163361 316.713013,271.028076 
	C303.006134,271.028076 289.253082,271.028076 275.000000,271.028076 
z"/>
<path fill="#BF0607" opacity="1.000000" stroke="none" 
	d="
M405.265747,207.676666 
	C409.705811,205.663498 413.960449,203.958969 418.622406,202.214294 
	C419.804108,202.466385 420.580658,202.753036 421.352509,203.051758 
	C429.701294,206.283020 433.522736,214.737701 430.118225,222.441467 
	C426.863007,229.807297 418.131042,233.179367 410.849701,229.882446 
	C403.072754,226.361130 400.179291,217.726547 404.100677,209.716110 
	C404.391602,209.121750 404.752106,208.561432 405.265747,207.676666 
z"/>
<path fill="#063457" opacity="1.000000" stroke="none" 
	d="
M107.846840,305.748718 
	C103.393021,309.682526 98.479836,311.027618 92.489082,309.975555 
	C91.198235,309.447083 90.344124,308.947937 89.517494,308.406769 
	C82.453804,303.782471 80.327393,295.241943 84.553566,288.500061 
	C88.825958,281.684387 97.789948,279.585510 104.579636,283.811005 
	C111.463531,288.095123 113.398308,296.548553 109.138191,303.789490 
	C108.804008,304.357513 108.366379,304.864685 107.846840,305.748718 
z"/>
<path fill="#BD0809" opacity="1.000000" stroke="none" 
	d="
M217.768433,302.185272 
	C221.258926,293.859009 225.793091,292.342957 233.470734,296.770630 
	C235.959290,300.530518 237.409927,304.612244 234.326035,307.937653 
	C232.350052,310.068390 228.879288,311.657440 225.958130,311.875549 
	C221.189438,312.231506 218.527191,308.628296 217.768433,302.185272 
z"/>
<path fill="#0A3557" opacity="1.000000" stroke="none" 
	d="
M295.053802,208.763794 
	C290.898132,216.364899 287.572540,217.535919 280.058868,214.245163 
	C278.927002,210.897675 277.198883,207.584824 277.499298,204.467422 
	C277.897888,200.330643 282.752106,197.680923 286.916809,198.174454 
	C291.877686,198.762299 294.600830,202.194138 295.053802,208.763794 
z"/>
<path fill="#082E51" opacity="1.000000" stroke="none" 
	d="
M369.233826,138.419266 
	C366.735779,131.820587 368.636108,126.745026 373.904053,125.063591 
	C379.041779,123.423714 384.282288,126.231117 385.558716,131.422897 
	C386.600433,135.659943 385.000183,138.972473 381.422272,141.224335 
	C377.509247,143.687134 373.582886,142.782364 369.233826,138.419266 
z"/>
<path fill="#B70204" opacity="1.000000" stroke="none" 
	d="
M156.821228,389.419403 
	C158.513672,395.506317 156.672409,399.929077 152.033981,401.669464 
	C147.402313,403.407288 142.317413,401.270355 140.389267,396.775787 
	C138.531754,392.445831 140.337860,387.563721 144.624252,385.328033 
	C148.829742,383.134552 152.949707,384.417358 156.821228,389.419403 
z"/>
</svg>